<svg xmlns="http://www.w3.org/2000/svg" width="430" height="430" fill="none" viewBox="0 0 430 430"><path stroke="#3A3347" stroke-linecap="round" stroke-linejoin="round" stroke-miterlimit="15.6" stroke-width="7" d="M290 105V75c0-11.046-8.954-20-20-20H160c-11.046 0-20 8.954-20 20v30"/><path fill="#b26836" d="M390 335c0 16.568-13.431 30-30 30H70c-16.568 0-30-13.431-30-30V135c0-16.569 13.432-30 30-30h290c16.569 0 30 13.431 30 30z"/><path fill="#b26836" d="M105 365c-16.568 0-30-13.431-30-30V135c0-16.569 13.432-30 30-30H70c-16.568 0-30 13.431-30 30v200c0 16.569 13.432 30 30 30z" opacity=".5" style="mix-blend-mode:multiply"/><path fill="#b26836" d="M360 365c16.569 0 30-13.432 30-30V235H40v100c0 16.569 13.432 30 30 30z" opacity=".4" style="mix-blend-mode:multiply"/><path fill="#ffc738" d="M170 235v40h90v-40"/><path fill="#ffc738" d="M170 275v-40h45v40z" opacity=".5" style="mix-blend-mode:multiply"/><path stroke="#121331" stroke-linecap="round" stroke-linejoin="round" stroke-miterlimit="15.6" stroke-width="7" d="M40 235h350m-220 0v40h90v-40"/><path stroke="#121331" stroke-linecap="round" stroke-linejoin="round" stroke-miterlimit="15.6" stroke-width="7" d="M390 335c0 16.568-13.431 30-30 30H70c-16.568 0-30-13.431-30-30V135c0-16.569 13.432-30 30-30h290c16.569 0 30 13.431 30 30zM290 105V75c0-11.046-8.954-20-20-20H160c-11.046 0-20 8.954-20 20v30"/></svg>